<svg width="765" height="788" viewBox="0 0 765 788" fill="none" xmlns="http://www.w3.org/2000/svg">
<path d="M397.364 331.361C397.364 361.805 371.676 386.518 339.947 386.518C308.217 386.518 282.53 361.805 282.53 331.361C282.53 300.918 308.217 276.205 339.947 276.205C371.676 276.205 397.364 300.918 397.364 331.361Z" fill="#2E3236" fill-opacity="0.52" stroke="url(#paint0_linear_1468_3507)"/>
<path d="M665.47 331.361C665.47 361.805 639.783 386.518 608.053 386.518C576.324 386.518 550.636 361.805 550.636 331.361C550.636 300.918 576.324 276.205 608.053 276.205C639.783 276.205 665.47 300.918 665.47 331.361Z" fill="#2E3236" fill-opacity="0.52" stroke="url(#paint1_linear_1468_3507)"/>
<path d="M464.39 442.888C464.39 473.331 438.703 498.044 406.974 498.044C375.244 498.044 349.557 473.331 349.557 442.888C349.557 412.444 375.244 387.731 406.974 387.731C438.703 387.731 464.39 412.444 464.39 442.888Z" fill="#2E3236" fill-opacity="0.52" stroke="url(#paint2_linear_1468_3507)"/>
<path d="M598.443 219.835C598.443 250.278 572.756 274.991 541.027 274.991C509.297 274.991 483.61 250.278 483.61 219.835C483.61 189.391 509.297 164.678 541.027 164.678C572.756 164.678 598.443 189.391 598.443 219.835Z" fill="#2E3236" fill-opacity="0.52" stroke="url(#paint3_linear_1468_3507)"/>
<path d="M598.443 442.888C598.443 473.331 572.756 498.044 541.027 498.044C509.297 498.044 483.61 473.331 483.61 442.888C483.61 412.444 509.297 387.731 541.027 387.731C572.756 387.731 598.443 412.444 598.443 442.888Z" fill="#2E3236" fill-opacity="0.52" stroke="url(#paint4_linear_1468_3507)"/>
<path d="M464.39 219.835C464.39 250.278 438.703 274.991 406.974 274.991C375.244 274.991 349.557 250.278 349.557 219.835C349.557 189.391 375.244 164.678 406.974 164.678C438.703 164.678 464.39 189.391 464.39 219.835Z" fill="#2E3236" fill-opacity="0.52" stroke="url(#paint5_linear_1468_3507)"/>
<path d="M799.967 332.5C799.967 348.321 786.615 361.18 770.102 361.18C753.589 361.18 740.236 348.321 740.236 332.5C740.236 316.679 753.589 303.82 770.102 303.82C786.615 303.82 799.967 316.679 799.967 332.5Z" fill="#2E3236" fill-opacity="0.52" stroke="url(#paint6_linear_1468_3507)"/>
<path d="M207.764 332.5C207.764 348.321 194.411 361.18 177.898 361.18C161.385 361.18 148.032 348.321 148.032 332.5C148.032 316.679 161.385 303.82 177.898 303.82C194.411 303.82 207.764 316.679 207.764 332.5Z" fill="#2E3236" fill-opacity="0.52" stroke="url(#paint7_linear_1468_3507)"/>
<path d="M88.9676 332.5C88.9676 342.425 80.5891 350.505 70.2113 350.505C59.8336 350.505 51.4551 342.425 51.4551 332.5C51.4551 322.575 59.8336 314.495 70.2113 314.495C80.5891 314.495 88.9676 322.575 88.9676 332.5Z" fill="#2E3236" fill-opacity="0.52" stroke="url(#paint8_linear_1468_3507)"/>
<path d="M651.917 86.0318C651.917 101.853 638.564 114.712 622.051 114.712C605.538 114.712 592.185 101.853 592.185 86.0318C592.185 70.2106 605.538 57.3513 622.051 57.3513C638.564 57.3513 651.917 70.2106 651.917 86.0318Z" fill="#2E3236" fill-opacity="0.52" stroke="url(#paint9_linear_1468_3507)"/>
<path d="M355.815 578.968C355.815 594.789 342.462 607.649 325.949 607.649C309.436 607.649 296.083 594.789 296.083 578.968C296.083 563.147 309.436 550.288 325.949 550.288C342.462 550.288 355.815 563.147 355.815 578.968Z" fill="#2E3236" fill-opacity="0.52" stroke="url(#paint10_linear_1468_3507)"/>
<path d="M290.862 668.502C290.862 678.427 282.483 686.507 272.106 686.507C261.728 686.507 253.349 678.427 253.349 668.502C253.349 658.577 261.728 650.498 272.106 650.498C282.483 650.498 290.862 658.577 290.862 668.502Z" fill="#2E3236" fill-opacity="0.52" stroke="url(#paint11_linear_1468_3507)"/>
<path d="M694.651 -3.50238C694.651 6.42276 686.272 14.5023 675.894 14.5023C665.517 14.5023 657.138 6.42276 657.138 -3.50238C657.138 -13.4275 665.517 -21.5071 675.894 -21.5071C686.272 -21.5071 694.651 -13.4275 694.651 -3.50238Z" fill="#2E3236" fill-opacity="0.52" stroke="url(#paint12_linear_1468_3507)"/>
<path d="M355.815 86.0318C355.815 101.853 342.462 114.712 325.949 114.712C309.436 114.712 296.083 101.853 296.083 86.0318C296.083 70.2106 309.436 57.3513 325.949 57.3513C342.462 57.3513 355.815 70.2106 355.815 86.0318Z" fill="#2E3236" fill-opacity="0.52" stroke="url(#paint13_linear_1468_3507)"/>
<path d="M651.917 578.968C651.917 594.789 638.564 607.649 622.051 607.649C605.538 607.649 592.185 594.789 592.185 578.968C592.185 563.147 605.538 550.288 622.051 550.288C638.564 550.288 651.917 563.147 651.917 578.968Z" fill="#2E3236" fill-opacity="0.52" stroke="url(#paint14_linear_1468_3507)"/>
<path d="M694.651 668.502C694.651 678.427 686.272 686.507 675.894 686.507C665.517 686.507 657.138 678.427 657.138 668.502C657.138 658.577 665.517 650.498 675.894 650.498C686.272 650.498 694.651 658.577 694.651 668.502Z" fill="#2E3236" fill-opacity="0.52" stroke="url(#paint15_linear_1468_3507)"/>
<path d="M290.862 -3.50238C290.862 6.42276 282.483 14.5023 272.106 14.5023C261.728 14.5023 253.349 6.42276 253.349 -3.50238C253.349 -13.4275 261.728 -21.5071 272.106 -21.5071C282.483 -21.5071 290.862 -13.4275 290.862 -3.50238Z" fill="#2E3236" fill-opacity="0.52" stroke="url(#paint16_linear_1468_3507)"/>
<path d="M508.457 109.803C508.457 128.061 493.049 142.896 474 142.896C454.951 142.896 439.542 128.061 439.542 109.803C439.542 91.5448 454.951 76.71 474 76.71C493.049 76.71 508.457 91.5448 508.457 109.803Z" fill="#2E3236" fill-opacity="0.52" stroke="url(#paint17_linear_1468_3507)"/>
<path d="M508.457 555.197C508.457 573.455 493.049 588.29 474 588.29C454.951 588.29 439.542 573.455 439.542 555.197C439.542 536.938 454.951 522.104 474 522.104C493.049 522.104 508.457 536.938 508.457 555.197Z" fill="#2E3236" fill-opacity="0.52" stroke="url(#paint18_linear_1468_3507)"/>
<path d="M497.422 688.004C497.422 700.405 486.955 710.492 474 710.492C461.045 710.492 450.578 700.405 450.578 688.004C450.578 675.602 461.045 665.515 474 665.515C486.955 665.515 497.422 675.602 497.422 688.004Z" fill="#2E3236" fill-opacity="0.52" stroke="url(#paint19_linear_1468_3507)"/>
<path d="M307.748 221.187C307.748 239.445 292.34 254.28 273.291 254.28C254.241 254.28 238.833 239.445 238.833 221.187C238.833 202.929 254.241 188.094 273.291 188.094C292.34 188.094 307.748 202.929 307.748 221.187Z" fill="#2E3236" fill-opacity="0.52" stroke="url(#paint20_linear_1468_3507)"/>
<path d="M177.028 154.713C177.028 167.114 166.56 177.201 153.606 177.201C140.651 177.201 130.183 167.114 130.183 154.713C130.183 142.311 140.651 132.224 153.606 132.224C166.56 132.224 177.028 142.311 177.028 154.713Z" fill="#2E3236" fill-opacity="0.52" stroke="url(#paint21_linear_1468_3507)"/>
<path d="M709.167 443.813C709.167 462.071 693.759 476.906 674.709 476.906C655.66 476.906 640.252 462.071 640.252 443.813C640.252 425.555 655.66 410.72 674.709 410.72C693.759 410.72 709.167 425.555 709.167 443.813Z" fill="#2E3236" fill-opacity="0.52" stroke="url(#paint22_linear_1468_3507)"/>
<path d="M307.748 443.813C307.748 462.071 292.34 476.906 273.291 476.906C254.241 476.906 238.833 462.071 238.833 443.813C238.833 425.555 254.241 410.72 273.291 410.72C292.34 410.72 307.748 425.555 307.748 443.813Z" fill="#2E3236" fill-opacity="0.52" stroke="url(#paint23_linear_1468_3507)"/>
<path d="M177.028 510.287C177.028 522.689 166.56 532.776 153.606 532.776C140.651 532.776 130.183 522.689 130.183 510.287C130.183 497.886 140.651 487.799 153.606 487.799C166.56 487.799 177.028 497.886 177.028 510.287Z" fill="#2E3236" fill-opacity="0.52" stroke="url(#paint24_linear_1468_3507)"/>
<path d="M709.167 221.187C709.167 239.445 693.759 254.28 674.709 254.28C655.66 254.28 640.252 239.445 640.252 221.187C640.252 202.929 655.66 188.094 674.709 188.094C693.759 188.094 709.167 202.929 709.167 221.187Z" fill="#2E3236" fill-opacity="0.52" stroke="url(#paint25_linear_1468_3507)"/>
<defs>
<linearGradient id="paint0_linear_1468_3507" x1="339.947" y1="275.705" x2="339.947" y2="387.018" gradientUnits="userSpaceOnUse">
<stop stop-color="#2A2E32"/>
<stop offset="0.369813" stop-color="#2A2E32" stop-opacity="0.09"/>
<stop offset="0.609405" stop-color="#2A2E32" stop-opacity="0.23"/>
<stop offset="1" stop-color="#212529"/>
</linearGradient>
<linearGradient id="paint1_linear_1468_3507" x1="608.053" y1="275.705" x2="608.053" y2="387.018" gradientUnits="userSpaceOnUse">
<stop stop-color="#2A2E32"/>
<stop offset="0.369813" stop-color="#2A2E32" stop-opacity="0.09"/>
<stop offset="0.609405" stop-color="#2A2E32" stop-opacity="0.23"/>
<stop offset="1" stop-color="#212529"/>
</linearGradient>
<linearGradient id="paint2_linear_1468_3507" x1="406.974" y1="387.231" x2="406.974" y2="498.544" gradientUnits="userSpaceOnUse">
<stop stop-color="#2A2E32"/>
<stop offset="0.369813" stop-color="#2A2E32" stop-opacity="0.09"/>
<stop offset="0.609405" stop-color="#2A2E32" stop-opacity="0.23"/>
<stop offset="1" stop-color="#212529"/>
</linearGradient>
<linearGradient id="paint3_linear_1468_3507" x1="541.027" y1="164.178" x2="541.027" y2="275.491" gradientUnits="userSpaceOnUse">
<stop stop-color="#2A2E32"/>
<stop offset="0.369813" stop-color="#2A2E32" stop-opacity="0.09"/>
<stop offset="0.609405" stop-color="#2A2E32" stop-opacity="0.23"/>
<stop offset="1" stop-color="#212529"/>
</linearGradient>
<linearGradient id="paint4_linear_1468_3507" x1="541.027" y1="387.231" x2="541.027" y2="498.544" gradientUnits="userSpaceOnUse">
<stop stop-color="#2A2E32"/>
<stop offset="0.369813" stop-color="#2A2E32" stop-opacity="0.09"/>
<stop offset="0.609405" stop-color="#2A2E32" stop-opacity="0.23"/>
<stop offset="1" stop-color="#212529"/>
</linearGradient>
<linearGradient id="paint5_linear_1468_3507" x1="406.974" y1="164.178" x2="406.974" y2="275.491" gradientUnits="userSpaceOnUse">
<stop stop-color="#2A2E32"/>
<stop offset="0.369813" stop-color="#2A2E32" stop-opacity="0.09"/>
<stop offset="0.609405" stop-color="#2A2E32" stop-opacity="0.23"/>
<stop offset="1" stop-color="#212529"/>
</linearGradient>
<linearGradient id="paint6_linear_1468_3507" x1="770.102" y1="303.32" x2="770.102" y2="361.68" gradientUnits="userSpaceOnUse">
<stop stop-color="#2A2E32"/>
<stop offset="0.369813" stop-color="#2A2E32" stop-opacity="0.09"/>
<stop offset="0.609405" stop-color="#2A2E32" stop-opacity="0.23"/>
<stop offset="1" stop-color="#212529"/>
</linearGradient>
<linearGradient id="paint7_linear_1468_3507" x1="177.898" y1="303.32" x2="177.898" y2="361.68" gradientUnits="userSpaceOnUse">
<stop stop-color="#2A2E32"/>
<stop offset="0.369813" stop-color="#2A2E32" stop-opacity="0.09"/>
<stop offset="0.609405" stop-color="#2A2E32" stop-opacity="0.23"/>
<stop offset="1" stop-color="#212529"/>
</linearGradient>
<linearGradient id="paint8_linear_1468_3507" x1="70.2113" y1="313.995" x2="70.2113" y2="351.005" gradientUnits="userSpaceOnUse">
<stop stop-color="#2A2E32"/>
<stop offset="0.369813" stop-color="#2A2E32" stop-opacity="0.09"/>
<stop offset="0.609405" stop-color="#2A2E32" stop-opacity="0.23"/>
<stop offset="1" stop-color="#212529"/>
</linearGradient>
<linearGradient id="paint9_linear_1468_3507" x1="622.051" y1="56.8513" x2="622.051" y2="115.212" gradientUnits="userSpaceOnUse">
<stop stop-color="#2A2E32"/>
<stop offset="0.369813" stop-color="#2A2E32" stop-opacity="0.09"/>
<stop offset="0.609405" stop-color="#2A2E32" stop-opacity="0.23"/>
<stop offset="1" stop-color="#212529"/>
</linearGradient>
<linearGradient id="paint10_linear_1468_3507" x1="325.949" y1="549.788" x2="325.949" y2="608.149" gradientUnits="userSpaceOnUse">
<stop stop-color="#2A2E32"/>
<stop offset="0.369813" stop-color="#2A2E32" stop-opacity="0.09"/>
<stop offset="0.609405" stop-color="#2A2E32" stop-opacity="0.23"/>
<stop offset="1" stop-color="#212529"/>
</linearGradient>
<linearGradient id="paint11_linear_1468_3507" x1="272.106" y1="649.998" x2="272.106" y2="687.007" gradientUnits="userSpaceOnUse">
<stop stop-color="#2A2E32"/>
<stop offset="0.369813" stop-color="#2A2E32" stop-opacity="0.09"/>
<stop offset="0.609405" stop-color="#2A2E32" stop-opacity="0.23"/>
<stop offset="1" stop-color="#212529"/>
</linearGradient>
<linearGradient id="paint12_linear_1468_3507" x1="675.894" y1="-22.0071" x2="675.894" y2="15.0023" gradientUnits="userSpaceOnUse">
<stop stop-color="#2A2E32"/>
<stop offset="0.369813" stop-color="#2A2E32" stop-opacity="0.09"/>
<stop offset="0.609405" stop-color="#2A2E32" stop-opacity="0.23"/>
<stop offset="1" stop-color="#212529"/>
</linearGradient>
<linearGradient id="paint13_linear_1468_3507" x1="325.949" y1="56.8513" x2="325.949" y2="115.212" gradientUnits="userSpaceOnUse">
<stop stop-color="#2A2E32"/>
<stop offset="0.369813" stop-color="#2A2E32" stop-opacity="0.09"/>
<stop offset="0.609405" stop-color="#2A2E32" stop-opacity="0.23"/>
<stop offset="1" stop-color="#212529"/>
</linearGradient>
<linearGradient id="paint14_linear_1468_3507" x1="622.051" y1="549.788" x2="622.051" y2="608.149" gradientUnits="userSpaceOnUse">
<stop stop-color="#2A2E32"/>
<stop offset="0.369813" stop-color="#2A2E32" stop-opacity="0.09"/>
<stop offset="0.609405" stop-color="#2A2E32" stop-opacity="0.23"/>
<stop offset="1" stop-color="#212529"/>
</linearGradient>
<linearGradient id="paint15_linear_1468_3507" x1="675.894" y1="649.998" x2="675.894" y2="687.007" gradientUnits="userSpaceOnUse">
<stop stop-color="#2A2E32"/>
<stop offset="0.369813" stop-color="#2A2E32" stop-opacity="0.09"/>
<stop offset="0.609405" stop-color="#2A2E32" stop-opacity="0.23"/>
<stop offset="1" stop-color="#212529"/>
</linearGradient>
<linearGradient id="paint16_linear_1468_3507" x1="272.106" y1="-22.0071" x2="272.106" y2="15.0023" gradientUnits="userSpaceOnUse">
<stop stop-color="#2A2E32"/>
<stop offset="0.369813" stop-color="#2A2E32" stop-opacity="0.09"/>
<stop offset="0.609405" stop-color="#2A2E32" stop-opacity="0.23"/>
<stop offset="1" stop-color="#212529"/>
</linearGradient>
<linearGradient id="paint17_linear_1468_3507" x1="474" y1="76.21" x2="474" y2="143.396" gradientUnits="userSpaceOnUse">
<stop stop-color="#2A2E32"/>
<stop offset="0.369813" stop-color="#2A2E32" stop-opacity="0.09"/>
<stop offset="0.609405" stop-color="#2A2E32" stop-opacity="0.23"/>
<stop offset="1" stop-color="#212529"/>
</linearGradient>
<linearGradient id="paint18_linear_1468_3507" x1="474" y1="521.604" x2="474" y2="588.79" gradientUnits="userSpaceOnUse">
<stop stop-color="#2A2E32"/>
<stop offset="0.369813" stop-color="#2A2E32" stop-opacity="0.09"/>
<stop offset="0.609405" stop-color="#2A2E32" stop-opacity="0.23"/>
<stop offset="1" stop-color="#212529"/>
</linearGradient>
<linearGradient id="paint19_linear_1468_3507" x1="474" y1="665.015" x2="474" y2="710.992" gradientUnits="userSpaceOnUse">
<stop stop-color="#2A2E32"/>
<stop offset="0.369813" stop-color="#2A2E32" stop-opacity="0.09"/>
<stop offset="0.609405" stop-color="#2A2E32" stop-opacity="0.23"/>
<stop offset="1" stop-color="#212529"/>
</linearGradient>
<linearGradient id="paint20_linear_1468_3507" x1="273.291" y1="187.594" x2="273.291" y2="254.78" gradientUnits="userSpaceOnUse">
<stop stop-color="#2A2E32"/>
<stop offset="0.369813" stop-color="#2A2E32" stop-opacity="0.09"/>
<stop offset="0.609405" stop-color="#2A2E32" stop-opacity="0.23"/>
<stop offset="1" stop-color="#212529"/>
</linearGradient>
<linearGradient id="paint21_linear_1468_3507" x1="153.606" y1="131.724" x2="153.606" y2="177.701" gradientUnits="userSpaceOnUse">
<stop stop-color="#2A2E32"/>
<stop offset="0.369813" stop-color="#2A2E32" stop-opacity="0.09"/>
<stop offset="0.609405" stop-color="#2A2E32" stop-opacity="0.23"/>
<stop offset="1" stop-color="#212529"/>
</linearGradient>
<linearGradient id="paint22_linear_1468_3507" x1="674.709" y1="410.22" x2="674.709" y2="477.406" gradientUnits="userSpaceOnUse">
<stop stop-color="#2A2E32"/>
<stop offset="0.369813" stop-color="#2A2E32" stop-opacity="0.09"/>
<stop offset="0.609405" stop-color="#2A2E32" stop-opacity="0.23"/>
<stop offset="1" stop-color="#212529"/>
</linearGradient>
<linearGradient id="paint23_linear_1468_3507" x1="273.291" y1="410.22" x2="273.291" y2="477.406" gradientUnits="userSpaceOnUse">
<stop stop-color="#2A2E32"/>
<stop offset="0.369813" stop-color="#2A2E32" stop-opacity="0.09"/>
<stop offset="0.609405" stop-color="#2A2E32" stop-opacity="0.23"/>
<stop offset="1" stop-color="#212529"/>
</linearGradient>
<linearGradient id="paint24_linear_1468_3507" x1="153.606" y1="487.299" x2="153.606" y2="533.276" gradientUnits="userSpaceOnUse">
<stop stop-color="#2A2E32"/>
<stop offset="0.369813" stop-color="#2A2E32" stop-opacity="0.09"/>
<stop offset="0.609405" stop-color="#2A2E32" stop-opacity="0.23"/>
<stop offset="1" stop-color="#212529"/>
</linearGradient>
<linearGradient id="paint25_linear_1468_3507" x1="674.709" y1="187.594" x2="674.709" y2="254.78" gradientUnits="userSpaceOnUse">
<stop stop-color="#2A2E32"/>
<stop offset="0.369813" stop-color="#2A2E32" stop-opacity="0.09"/>
<stop offset="0.609405" stop-color="#2A2E32" stop-opacity="0.23"/>
<stop offset="1" stop-color="#212529"/>
</linearGradient>
</defs>
</svg>
