<svg width="24" height="24" viewBox="0 0 24 24" fill="none" xmlns="http://www.w3.org/2000/svg">
<g clip-path="url(#clip0_20_816)">
<path d="M12 24C18.6274 24 24 18.6274 24 12C24 5.37258 18.6274 0 12 0C5.37258 0 0 5.37258 0 12C0 18.6274 5.37258 24 12 24Z" fill="#0033AD"/>
<path d="M11.8134 4.49781C12.1697 4.31209 12.6043 4.74292 12.415 5.0987C12.3052 5.38871 11.8885 5.46587 11.6756 5.24476C11.4501 5.03261 11.5237 4.61326 11.8134 4.49781ZM7.98292 4.91068C8.19924 4.82162 8.47313 5.01985 8.45106 5.25564C8.47402 5.51162 8.16104 5.70001 7.94049 5.57837C7.64832 5.46521 7.68174 4.99093 7.98268 4.91073M15.8281 5.58573C15.49 5.5449 15.4365 5.01334 15.762 4.90632C16.0145 4.78318 16.2461 5.01414 16.283 5.2532C16.2301 5.45753 16.059 5.64461 15.8283 5.58555M8.85442 6.54104C9.2161 6.31229 9.7322 6.65298 9.67656 7.07307C9.65781 7.49724 9.09437 7.74301 8.77656 7.45623C8.4692 7.231 8.51574 6.7142 8.85451 6.541M14.376 6.78371C14.5373 6.36784 15.1912 6.35528 15.3748 6.76028C15.5564 7.07532 15.3331 7.46542 15.0096 7.57253C14.5812 7.65249 14.1742 7.18937 14.376 6.78386M11.3521 7.54881C11.3486 7.19139 11.6742 6.92504 12.0139 6.90067C12.2392 6.94585 12.4848 7.04186 12.5814 7.2692C12.7616 7.58284 12.6016 8.01451 12.2762 8.1587C12.1273 8.24214 11.9513 8.21082 11.7892 8.20089C11.5414 8.07901 11.3327 7.84065 11.3521 7.54857M5.65524 8.06969C5.98567 7.86658 6.4314 8.23726 6.30634 8.59618C6.23748 8.90664 5.82015 9.03292 5.58156 8.83473C5.32688 8.64882 5.36706 8.20253 5.65524 8.06969ZM17.8879 8.06903C18.1682 7.85139 18.6309 8.10104 18.5974 8.455C18.6162 8.77773 18.2163 9.02111 17.938 8.85493C17.6316 8.71717 17.6005 8.24556 17.888 8.06907M12.9539 8.71159C13.4165 8.54542 13.9659 8.7444 14.2296 9.1569C14.5774 9.66109 14.3923 10.4289 13.8526 10.7182C13.2933 11.0604 12.4768 10.7703 12.2702 10.1458C12.0358 9.58674 12.3773 8.88704 12.9539 8.71183M10.2398 8.76681C10.7525 8.52479 11.4424 8.72786 11.6901 9.2523C11.9815 9.76276 11.7562 10.4736 11.2354 10.7371C10.7137 11.0334 9.97778 10.8088 9.72531 10.2607C9.44223 9.7307 9.69362 9.01084 10.24 8.76681M7.52213 9.69569C7.56109 9.36536 7.87271 9.15043 8.1871 9.12817C8.3522 9.14674 8.50608 9.22088 8.6235 9.33842C8.74091 9.45597 8.81488 9.60993 8.83328 9.77504C8.81106 10.1144 8.54879 10.4462 8.18917 10.4441C7.79349 10.4782 7.44657 10.0845 7.52218 9.69578M15.5492 9.20008C15.9554 8.96364 16.5195 9.30789 16.5014 9.77453C16.5292 10.269 15.9049 10.6174 15.5004 10.3274C15.0803 10.0859 15.113 9.40572 15.5492 9.20008ZM9.13524 10.9427C9.61032 10.812 10.1536 11.0359 10.3868 11.4724C10.642 11.9119 10.5377 12.5224 10.1413 12.845C9.63287 13.3179 8.69518 13.128 8.42457 12.4826C8.1136 11.891 8.49132 11.0982 9.13543 10.9425M14.2833 10.9401C14.7452 10.808 15.2878 10.986 15.5361 11.4068C15.8642 11.888 15.7076 12.6057 15.2189 12.9161C14.707 13.2764 13.914 13.0872 13.6323 12.524C13.2908 11.9414 13.6344 11.118 14.2834 10.9403M6.07979 11.4894C6.49018 11.3342 6.9451 11.7871 6.77884 12.1939C6.67731 12.5646 6.15488 12.7016 5.88503 12.4283C5.56923 12.1716 5.68604 11.6005 6.07979 11.4894ZM17.2032 12.0801C17.1945 11.9152 17.251 11.7534 17.3606 11.6299C17.4703 11.5064 17.6241 11.431 17.7889 11.4201C18.0701 11.4646 18.3432 11.6913 18.321 11.9973C18.3467 12.4014 17.8598 12.676 17.5155 12.4862C17.3542 12.4042 17.2714 12.2387 17.2032 12.0801ZM4.06192 11.6889C4.30881 11.581 4.6142 11.7951 4.55785 12.0692C4.54463 12.3797 4.08629 12.4991 3.91787 12.2397C3.76909 12.0595 3.85815 11.7818 4.06192 11.6889ZM19.6295 11.6827C19.8033 11.5589 20.0822 11.6478 20.1511 11.851C20.268 12.0728 20.0537 12.3767 19.8043 12.3392C19.4538 12.3711 19.3402 11.837 19.6297 11.6827M10.4767 13.173C11.1264 13.0042 11.8247 13.5458 11.8288 14.2147C11.871 14.8907 11.1834 15.4901 10.5183 15.334C10.0043 15.2512 9.6009 14.756 9.61759 14.2366C9.62226 13.9891 9.70924 13.7501 9.86481 13.5575C10.0204 13.3649 10.2357 13.2296 10.4767 13.173ZM13.0496 13.1716C13.709 12.9872 14.4282 13.5387 14.4178 14.2232C14.4526 14.8867 13.7862 15.4659 13.1351 15.3341C12.5223 15.2548 12.0702 14.5816 12.2413 13.987C12.2888 13.7902 12.3893 13.6103 12.5317 13.4665C12.6742 13.3227 12.8533 13.2207 13.0496 13.1714M8.08862 13.5834C8.5449 13.5055 8.97273 14.0146 8.78767 14.4478C8.65271 14.9095 7.98081 15.0347 7.68371 14.6576C7.33524 14.2954 7.5954 13.6334 8.08862 13.5834ZM15.6341 13.6037C16.041 13.4333 16.5405 13.7852 16.5091 14.2269C16.5255 14.713 15.9092 15.0482 15.511 14.7645C15.0603 14.5097 15.1424 13.76 15.6341 13.6037ZM17.7432 15.7192C17.5838 15.4222 17.8733 15.0286 18.203 15.0835C18.367 15.0808 18.4819 15.2101 18.587 15.3186C18.6085 15.4945 18.6447 15.7045 18.4987 15.8401C18.3003 16.0912 17.8509 16.0196 17.7432 15.7192ZM5.65412 15.166C5.96228 14.9609 6.40576 15.2669 6.33648 15.6272C6.29963 15.9459 5.89824 16.1279 5.63387 15.9471C5.35013 15.783 5.36059 15.3157 5.65412 15.166ZM11.7423 15.8332C12.1457 15.655 12.6597 16.0066 12.6215 16.4507C12.6514 16.9418 12.0157 17.2818 11.6212 16.987C11.1831 16.7338 11.2561 15.9889 11.7423 15.8332ZM8.92243 16.491C9.26607 16.3102 9.72718 16.6223 9.69587 17.0071C9.70632 17.3229 9.39817 17.592 9.08649 17.5453C8.8284 17.5398 8.65993 17.3084 8.57734 17.0884C8.5816 16.8486 8.68046 16.5815 8.92234 16.4911M14.6344 16.4966C14.9877 16.2782 15.4899 16.5918 15.4565 17.0031C15.4656 17.433 14.898 17.7083 14.569 17.4259C14.2502 17.2046 14.2893 16.6726 14.6343 16.4966M15.6277 18.9523C15.4705 18.7144 15.6555 18.4279 15.9107 18.3737C16.116 18.4154 16.333 18.5697 16.2898 18.8077C16.2599 19.1297 15.789 19.2284 15.6276 18.9523M7.74273 18.7457C7.80531 18.5572 7.95695 18.3699 8.17867 18.4189C8.5021 18.4419 8.5981 18.9294 8.31503 19.0798C8.06045 19.2515 7.76509 19.0164 7.74254 18.7459M11.5466 18.9622C11.6086 18.6834 11.9695 18.5478 12.2076 18.6959C12.3647 18.7634 12.4107 18.9392 12.451 19.0888C12.4295 19.1666 12.4102 19.2446 12.3912 19.3225C12.2938 19.4379 12.1687 19.5534 12.0066 19.5492C11.7054 19.5845 11.4336 19.2439 11.5468 18.9623" fill="white"/>
</g>
<defs>
<clipPath id="clip0_20_816">
<rect width="24" height="24" fill="white"/>
</clipPath>
</defs>
</svg>
