<svg width="24" height="24" viewBox="0 0 24 24" fill="none" xmlns="http://www.w3.org/2000/svg">
<path d="M19.338 15.7628C19.9364 14.5987 20.249 13.3089 20.25 12C20.25 7.45125 16.5487 3.75 12 3.75C7.45125 3.75 3.75 7.45125 3.75 12C3.75 16.5487 7.45125 20.25 12 20.25C13.3065 20.25 14.601 19.9357 15.7635 19.3387L19.3185 20.2275C19.4441 20.2591 19.5757 20.2576 19.7005 20.223C19.8252 20.1884 19.9389 20.122 20.0303 20.0303C20.1219 19.9386 20.1882 19.8249 20.2228 19.7C20.2573 19.5751 20.259 19.4434 20.2275 19.3177L19.338 15.7628ZM17.8132 15.8453L18.4688 18.4688L15.8453 17.8125C15.6598 17.7667 15.4639 17.793 15.297 17.886C14.2901 18.4516 13.1549 18.7491 12 18.75C8.27775 18.75 5.25 15.7215 5.25 12C5.25 8.2785 8.27775 5.25 12 5.25C15.7222 5.25 18.75 8.2785 18.75 12C18.749 13.1545 18.4517 14.2894 17.8868 15.2963C17.7927 15.463 17.7664 15.6596 17.8132 15.8453Z" fill="#738290"/>
</svg>
