<svg width="24" height="24" viewBox="0 0 24 24" fill="none" xmlns="http://www.w3.org/2000/svg">
<g opacity="0.9">
<path d="M14.0322 9.49153C14.3036 9.80439 14.7773 9.83794 15.0902 9.56648C15.403 9.29501 15.4366 8.82132 15.1651 8.50847L14.0322 9.49153ZM9.96784 14.5085C9.69638 14.1956 9.22269 14.1621 8.90983 14.4335C8.59698 14.705 8.56342 15.1787 8.83489 15.4915L9.96784 14.5085ZM12.75 7C12.75 6.58579 12.4142 6.25 12 6.25C11.5858 6.25 11.25 6.58579 11.25 7H12.75ZM11.25 17C11.25 17.4142 11.5858 17.75 12 17.75C12.4142 17.75 12.75 17.4142 12.75 17L11.25 17ZM20.25 12C20.25 16.5563 16.5563 20.25 12 20.25V21.75C17.3848 21.75 21.75 17.3848 21.75 12H20.25ZM12 20.25C7.44365 20.25 3.75 16.5563 3.75 12H2.25C2.25 17.3848 6.61522 21.75 12 21.75V20.25ZM3.75 12C3.75 7.44365 7.44365 3.75 12 3.75V2.25C6.61522 2.25 2.25 6.61522 2.25 12H3.75ZM12 3.75C16.5563 3.75 20.25 7.44365 20.25 12H21.75C21.75 6.61522 17.3848 2.25 12 2.25V3.75ZM12 11.25C11.299 11.25 10.6983 11.0592 10.2947 10.7902C9.8859 10.5176 9.75 10.2235 9.75 10H8.25C8.25 10.8811 8.78567 11.5869 9.46265 12.0383C10.1449 12.4931 11.0442 12.75 12 12.75V11.25ZM9.75 10C9.75 9.7765 9.8859 9.48236 10.2947 9.20982C10.6983 8.94078 11.299 8.75 12 8.75V7.25C11.0442 7.25 10.1449 7.50693 9.46265 7.96175C8.78567 8.41307 8.25 9.11893 8.25 10H9.75ZM12 8.75C12.9554 8.75 13.6923 9.09978 14.0322 9.49153L15.1651 8.50847C14.4676 7.70461 13.2654 7.25 12 7.25V8.75ZM12 12.75C12.701 12.75 13.3017 12.9408 13.7053 13.2098C14.1141 13.4824 14.25 13.7765 14.25 14H15.75C15.75 13.1189 15.2143 12.4131 14.5374 11.9617C13.8551 11.5069 12.9558 11.25 12 11.25V12.75ZM11.25 7V8H12.75V7H11.25ZM11.25 16L11.25 17L12.75 17L12.75 16L11.25 16ZM12 15.25C11.0446 15.25 10.3078 14.9002 9.96784 14.5085L8.83489 15.4915C9.53239 16.2954 10.7346 16.75 12 16.75L12 15.25ZM14.25 14C14.25 14.2235 14.1141 14.5176 13.7053 14.7902C13.3018 15.0592 12.701 15.25 12 15.25V16.75C12.9559 16.75 13.8551 16.4931 14.5374 16.0383C15.2143 15.5869 15.75 14.8811 15.75 14H14.25ZM11.25 8L11.25 16L12.75 16L12.75 8L11.25 8Z" fill="#738290"/>
</g>
</svg>
