<svg width="24" height="24" viewBox="0 0 24 24" fill="none" xmlns="http://www.w3.org/2000/svg">
<g opacity="0.9">
<path fill-rule="evenodd" clip-rule="evenodd" d="M3.6001 20.3999C3.6001 19.7372 4.13736 19.1999 4.8001 19.1999H19.2001C19.8628 19.1999 20.4001 19.7372 20.4001 20.3999C20.4001 21.0626 19.8628 21.5999 19.2001 21.5999H4.8001C4.13736 21.5999 3.6001 21.0626 3.6001 20.3999ZM7.55157 11.1514C8.0202 10.6827 8.78 10.6827 9.24862 11.1514L10.8001 12.7028L10.8001 3.5999C10.8001 2.93716 11.3374 2.3999 12.0001 2.3999C12.6628 2.3999 13.2001 2.93716 13.2001 3.5999L13.2001 12.7028L14.7516 11.1514C15.2202 10.6827 15.98 10.6827 16.4486 11.1514C16.9173 11.62 16.9173 12.3798 16.4486 12.8484L12.8486 16.4484C12.6236 16.6735 12.3184 16.7999 12.0001 16.7999C11.6818 16.7999 11.3766 16.6735 11.1516 16.4484L7.55157 12.8484C7.08294 12.3798 7.08294 11.62 7.55157 11.1514Z" fill="url(#paint0_linear_23_7283)"/>
</g>
<defs>
<linearGradient id="paint0_linear_23_7283" x1="15.4549" y1="2.93961" x2="7.09582" y2="15.4759" gradientUnits="userSpaceOnUse">
<stop stop-color="#FBD04E"/>
<stop offset="0.56019" stop-color="#F56328"/>
<stop offset="1" stop-color="#A12D30"/>
</linearGradient>
</defs>
</svg>
