<svg width="24" height="24" viewBox="0 0 24 24" fill="none" xmlns="http://www.w3.org/2000/svg">
<g style="mix-blend-mode:luminosity">
<path d="M3 12.4302C3 10.4282 3 9.42723 3.45607 8.59743C3.91215 7.76763 4.74537 7.25263 6.4118 6.22263L8.16864 5.13675C9.93018 4.04796 10.811 3.50357 11.7842 3.50357C12.7574 3.50357 13.6382 4.04796 15.3998 5.13675L17.1566 6.22262C18.823 7.25263 19.6562 7.76763 20.1123 8.59743C20.5684 9.42723 20.5684 10.4282 20.5684 12.4302V13.7609C20.5684 17.1734 20.5684 18.8797 19.5392 19.9398C18.5101 21 17.7703 21 14.4576 21C14.4576 21 14.4576 19.8589 14.4576 18.3375C14.4576 16.8161 13.3119 16.8161 11.7842 16.8161C10.2565 16.8161 9.11074 16.8161 9.11074 18.3375C9.11074 19.8589 9.11074 21 9.11074 21C5.79801 21 5.05827 21 4.02913 19.9398C3 18.8797 3 17.1734 3 13.7609V12.4302Z" fill="url(#paint0_linear_50_6)"/>
</g>
<defs>
<linearGradient id="paint0_linear_50_6" x1="15.397" y1="3.99539" x2="8.22815" y2="16.3331" gradientUnits="userSpaceOnUse">
<stop stop-color="#BDBDBD"/>
<stop offset="0.56019" stop-color="#868686"/>
<stop offset="1" stop-color="#505050"/>
</linearGradient>
</defs>
</svg>
