<svg width="24" height="24" viewBox="0 0 24 24" fill="none" xmlns="http://www.w3.org/2000/svg">
<rect width="24" height="24" fill="#F5F5F5"/>
<g clip-path="url(#clip0_23_8480)">
<rect width="1440" height="960" transform="translate(-124 -138)" fill="#F9FAFC"/>
<rect x="-24" y="-24" width="250" height="328" rx="15" fill="white"/>
<g style="mix-blend-mode:luminosity">
<path d="M3 12.4303C3 10.4283 3 9.42732 3.45607 8.59752C3.91215 7.76773 4.74537 7.25272 6.4118 6.22272L8.16864 5.13684C9.93018 4.04805 10.811 3.50366 11.7842 3.50366C12.7574 3.50366 13.6382 4.04805 15.3998 5.13684L17.1566 6.22271C18.823 7.25272 19.6562 7.76773 20.1123 8.59752C20.5684 9.42732 20.5684 10.4283 20.5684 12.4303V13.7609C20.5684 17.1734 20.5684 18.8798 19.5392 19.9399C18.5101 21.0001 17.7703 21.0001 14.4576 21.0001C14.4576 21.0001 14.4576 19.859 14.4576 18.3376C14.4576 16.8162 13.3119 16.8162 11.7842 16.8162C10.2565 16.8162 9.11074 16.8162 9.11074 18.3376C9.11074 19.859 9.11074 21.0001 9.11074 21.0001C5.79801 21.0001 5.05827 21.0001 4.02913 19.9399C3 18.8798 3 17.1734 3 13.7609V12.4303Z" fill="url(#paint0_linear_23_8480)"/>
</g>
</g>
<defs>
<linearGradient id="paint0_linear_23_8480" x1="15.397" y1="3.99549" x2="8.22815" y2="16.3332" gradientUnits="userSpaceOnUse">
<stop stop-color="#FBD04E"/>
<stop offset="0.56019" stop-color="#F56328"/>
<stop offset="1" stop-color="#A12D30"/>
</linearGradient>
<clipPath id="clip0_23_8480">
<rect width="1440" height="960" fill="white" transform="translate(-124 -138)"/>
</clipPath>
</defs>
</svg>
