<svg width="24" height="24" viewBox="0 0 24 24" fill="none" xmlns="http://www.w3.org/2000/svg">
<g style="mix-blend-mode:luminosity" clip-path="url(#clip0_746_2005)">
<path opacity="0.5" d="M17.25 0.75C13.9418 0.75 11.25 3.44175 11.25 6.75C11.25 8.9295 12.3877 10.8787 14.25 11.9445V12.75C14.25 12.9487 14.3287 13.14 14.4697 13.2803L16.3373 15.1478L15.8287 16.164C15.723 16.3755 15.723 16.6238 15.8287 16.8353L16.4115 18L15.8295 19.1647C15.777 19.2682 15.75 19.3838 15.75 19.5V21C15.75 21.1987 15.8287 21.39 15.9697 21.5303L17.4697 23.0303C17.616 23.1765 17.808 23.25 18 23.25C18.192 23.25 18.384 23.1765 18.5303 23.0303L20.0303 21.5303C20.1713 21.39 20.25 21.1987 20.25 21V11.9445C22.1123 10.8787 23.25 8.9295 23.25 6.75C23.25 3.44175 20.5582 0.75 17.25 0.75ZM17.2762 7.125C16.4497 7.14 15.765 6.4785 15.75 5.65125C15.7358 4.82475 16.3973 4.14 17.2238 4.125C18.0503 4.11 18.735 4.7715 18.75 5.59875C18.7642 6.42525 18.1027 7.11 17.2762 7.125Z" fill="#9E2D2F"/>
<path d="M13.5 12.7499C13.5 12.9299 13.53 13.1174 13.5975 13.2824C13.4025 13.3349 13.2 13.3799 12.9975 13.4174C12.9225 13.4474 12.8325 13.4624 12.75 13.4624C12.2475 13.5224 11.535 13.5074 10.9275 13.3799L4.2825 20.0324C4.14 20.1674 3.9525 20.2499 3.75 20.2499H1.5C1.0875 20.2499 0.75 19.9124 0.75 19.4999V17.2499C0.75 17.0474 0.8325 16.8599 0.9675 16.7174L1.7175 15.9674C1.86 15.8324 2.0475 15.7499 2.25 15.7499H3.21L3.7875 14.0099C3.8625 13.7924 4.0425 13.6124 4.26 13.5374L5.8575 13.0049L5.2725 10.6799C5.205 10.4249 5.28 10.1549 5.4675 9.96739L6.33 9.11239C5.7525 7.04239 6.33 4.79239 7.86 3.25489C8.715 2.39989 9.795 1.82989 10.98 1.60489C11.04 1.58239 11.1 1.56739 11.145 1.55989C11.7375 1.46989 12.3375 1.47739 12.9225 1.57489C11.445 2.81239 10.5 4.67239 10.5 6.74989C10.5 9.05239 11.61 11.1149 13.5 12.3599V12.7499Z" fill="url(#paint0_linear_746_2005)"/>
</g>
<defs>
<linearGradient id="paint0_linear_746_2005" x1="9.81578" y1="2.02397" x2="1.08435" y2="12.2766" gradientUnits="userSpaceOnUse">
<stop stop-color="#FBD04E"/>
<stop offset="0.56019" stop-color="#F56328"/>
<stop offset="1" stop-color="#A12D30"/>
</linearGradient>
<clipPath id="clip0_746_2005">
<rect width="24" height="24" fill="white"/>
</clipPath>
</defs>
</svg>
