<svg width="65" height="48" viewBox="0 0 65 48" fill="none" xmlns="http://www.w3.org/2000/svg">
<path fill-rule="evenodd" clip-rule="evenodd" d="M37.704 1.00659C38.0312 0.96641 38.3127 0.801659 38.5068 0.565698C43.2466 1.46027 47.6215 3.3822 51.3892 6.0902C51.384 6.16694 51.386 6.24528 51.3957 6.32444C51.4788 7.00117 52.0948 7.4824 52.7715 7.39931C52.8578 7.38871 52.941 7.36944 53.0202 7.34248C60.2525 13.2676 64.8649 22.2504 64.8649 32.3062C64.8649 35.5681 64.3795 38.7171 63.4769 41.6855C63.4769 41.6855 62.5109 44.2908 61.4647 42.7276C61.1636 42.2777 60.9059 41.8202 60.6603 41.3842C60.0524 40.3053 59.519 39.3584 58.5876 38.9873C58.061 38.7775 57.5343 38.8215 56.9565 38.8698C56.0993 38.9414 55.1295 39.0224 53.8797 38.2985C53.1849 37.8961 52.2884 36.4184 51.1995 34.6238C49.009 31.0135 46.0403 26.1207 42.3714 26.1207C39.6586 26.1207 38.3494 27.535 36.9944 28.9989C35.6059 30.4989 34.1692 32.051 31.1247 32.187C25.109 32.4556 23.0166 34.2633 23.0166 34.2633V25.0745L28.2476 25.109C29.1077 25.109 29.9934 24.7397 30.6016 24.1438C31.2098 23.5479 31.3862 22.7398 31.3862 21.8971V18.2374C31.3862 18.2374 31.3862 15.9547 29.2938 15.9547C26.9398 15.9547 27.2014 18.2374 27.2014 18.2374V20.9241H23.0166V13.027C23.0166 13.027 23.0166 10.7236 20.9241 10.7236C18.8317 10.7236 18.8317 13.027 18.8317 13.027V28.2476H14.6469V24.8456C14.6469 24.8456 14.6469 22.4935 12.5545 22.4935C10.4621 22.4935 10.4621 24.8456 10.4621 24.8456V29.2551C10.4621 30.0978 10.6385 31.0519 11.2467 31.6478C11.8549 32.2436 12.8028 32.4324 13.6007 32.4324H18.8317V37.0852C18.8317 37.0852 11.5083 47.0793 7.84656 47.0793C4.18483 47.0793 2.11197 43.7827 1.47017 41.9517C0.514822 38.9057 0 35.6658 0 32.3062C0 14.464 14.5205 0 32.4324 0C33.7781 0 35.1046 0.081632 36.4072 0.240195C36.6101 0.748066 37.1356 1.07637 37.704 1.00659ZM40.6327 5.54312C41.7539 5.40546 42.5512 4.38495 42.4135 3.26377C42.2758 2.14258 41.2553 1.34528 40.1342 1.48294C39.013 1.6206 38.2157 2.64111 38.3533 3.76229C38.491 4.88348 39.5115 5.68079 40.6327 5.54312ZM43.4816 9.32262C44.6028 9.18496 45.4001 8.16446 45.2624 7.04327C45.1247 5.92208 44.1042 5.12478 42.983 5.26244C41.8619 5.40011 41.0646 6.42061 41.2022 7.5418C41.3399 8.66298 42.3604 9.46029 43.4816 9.32262ZM48.1804 8.74568C49.3016 8.60802 50.0989 7.58751 49.9612 6.46633C49.8235 5.34514 48.803 4.54784 47.6818 4.6855C46.5607 4.82316 45.7634 5.84367 45.901 6.96485C46.0387 8.08604 47.0592 8.88335 48.1804 8.74568ZM35.7728 4.12131C35.845 4.70914 35.4269 5.24419 34.8391 5.31636C34.2513 5.38854 33.7162 4.97052 33.6441 4.38268C33.5719 3.79485 33.9899 3.2598 34.5777 3.18763C35.1656 3.11545 35.7006 3.53347 35.7728 4.12131ZM31.0167 5.39042C31.3895 5.34465 31.6545 5.00536 31.6088 4.63258C31.563 4.25981 31.2237 3.99472 30.8509 4.04049C30.4782 4.08626 30.2131 4.42556 30.2588 4.79833C30.3046 5.17111 30.6439 5.43619 31.0167 5.39042ZM42.0661 12.4741C42.1383 13.062 41.7202 13.597 41.1324 13.6692C40.5446 13.7414 40.0095 13.3234 39.9373 12.7355C39.8652 12.1477 40.2832 11.6126 40.871 11.5405C41.4589 11.4683 41.9939 11.8863 42.0661 12.4741ZM39.5983 16.7773C39.971 16.7316 40.2361 16.3923 40.1904 16.0195C40.1446 15.6467 39.8053 15.3816 39.4325 15.4274C39.0597 15.4732 38.7947 15.8125 38.8404 16.1852C38.8862 16.558 39.2255 16.8231 39.5983 16.7773ZM52.445 11.1998C52.5172 11.7876 52.0991 12.3227 51.5113 12.3948C50.9235 12.467 50.3884 12.049 50.3162 11.4612C50.2441 10.8733 50.6621 10.3383 51.2499 10.2661C51.8378 10.1939 52.3728 10.6119 52.445 11.1998ZM53.7518 15.0395C54.1246 14.9937 54.3896 14.6544 54.3439 14.2817C54.2981 13.9089 53.9588 13.6438 53.586 13.6896C53.2133 13.7353 52.9482 14.0746 52.9939 14.4474C53.0397 14.8202 53.379 15.0853 53.7518 15.0395ZM46.2351 12.3259C46.9119 12.2428 47.3931 11.6269 47.31 10.9501C47.2269 10.2734 46.611 9.79217 45.9342 9.87526C45.2575 9.95835 44.7763 10.5743 44.8594 11.251C44.9425 11.9278 45.5584 12.409 46.2351 12.3259ZM47.518 15.8418C47.5749 16.3049 47.2455 16.7264 46.7824 16.7833C46.3193 16.8401 45.8978 16.5108 45.841 16.0477C45.7841 15.5846 46.1134 15.1631 46.5765 15.1062C47.0396 15.0494 47.4611 15.3787 47.518 15.8418ZM38.7011 9.12695C39.3778 9.04385 39.859 8.4279 39.776 7.75117C39.6929 7.07444 39.0769 6.59321 38.4002 6.6763C37.7234 6.75939 37.2422 7.37535 37.3253 8.05207C37.4084 8.7288 38.0244 9.21004 38.7011 9.12695ZM35.4917 10.7385C35.5485 11.2016 35.2192 11.6231 34.7561 11.6799C34.293 11.7368 33.8715 11.4075 33.8147 10.9444C33.7578 10.4813 34.0871 10.0598 34.5502 10.0029C35.0133 9.94603 35.4348 10.2754 35.4917 10.7385Z" fill="url(#paint0_linear_15_807)"/>
<defs>
<linearGradient id="paint0_linear_15_807" x1="45.7716" y1="1.3234" x2="29.8262" y2="38.9779" gradientUnits="userSpaceOnUse">
<stop stop-color="#FBD04E"/>
<stop offset="1" stop-color="#9E2D2F"/>
</linearGradient>
</defs>
</svg>
