<svg width="24" height="24" viewBox="0 0 24 24" fill="none" xmlns="http://www.w3.org/2000/svg">
<g opacity="0.9">
<path fill-rule="evenodd" clip-rule="evenodd" d="M21.6 12.0001C21.6 16.6393 17.3019 20.4001 12 20.4001C10.21 20.4001 8.53448 19.9714 7.10012 19.2251L2.39999 20.4001L4.00596 16.6528C2.99136 15.3209 2.39999 13.7209 2.39999 12.0001C2.39999 7.36091 6.69806 3.6001 12 3.6001C17.3019 3.6001 21.6 7.36091 21.6 12.0001ZM8.39999 10.8001H5.99999V13.2001H8.39999V10.8001ZM18 10.8001H15.6V13.2001H18V10.8001ZM10.8 10.8001H13.2V13.2001H10.8V10.8001Z" fill="url(#paint0_linear_23_6722)"/>
</g>
<defs>
<linearGradient id="paint0_linear_23_6722" x1="15.9484" y1="4.07234" x2="9.53112" y2="16.6426" gradientUnits="userSpaceOnUse">
<stop stop-color="#FBD04E"/>
<stop offset="0.56019" stop-color="#F56328"/>
<stop offset="1" stop-color="#A12D30"/>
</linearGradient>
</defs>
</svg>
