<svg width="25" height="24" viewBox="0 0 25 24" fill="none" xmlns="http://www.w3.org/2000/svg">
<g opacity="0.9">
<path d="M13.5732 3.06325C13.37 2.65671 12.9544 2.3999 12.4999 2.3999C12.0454 2.3999 11.6299 2.65671 11.4266 3.06325L3.0266 19.8632C2.81378 20.2889 2.87259 20.8001 3.1765 21.1663C3.48042 21.5325 3.97201 21.6845 4.42958 21.5537L10.4296 19.8395C10.9447 19.6923 11.2999 19.2214 11.2999 18.6856V13.1999C11.2999 12.5372 11.8372 11.9999 12.4999 11.9999C13.1626 11.9999 13.6999 12.5372 13.6999 13.1999V18.6856C13.6999 19.2214 14.0551 19.6923 14.5702 19.8394L20.5702 21.5537C21.0278 21.6845 21.5194 21.5325 21.8233 21.1663C22.1272 20.8001 22.1861 20.2889 21.9732 19.8632L13.5732 3.06325Z" fill="url(#paint0_linear_23_7286)"/>
</g>
<defs>
<linearGradient id="paint0_linear_23_7286" x1="16.4483" y1="2.93961" x2="8.56544" y2="16.4506" gradientUnits="userSpaceOnUse">
<stop stop-color="#FBD04E"/>
<stop offset="0.56019" stop-color="#F56328"/>
<stop offset="1" stop-color="#A12D30"/>
</linearGradient>
</defs>
</svg>
