<svg width="25" height="24" viewBox="0 0 25 24" fill="none" xmlns="http://www.w3.org/2000/svg">
<g opacity="0.9">
<path fill-rule="evenodd" clip-rule="evenodd" d="M12.4999 21.5999C17.8018 21.5999 22.0999 17.3018 22.0999 11.9999C22.0999 6.69797 17.8018 2.3999 12.4999 2.3999C7.19797 2.3999 2.8999 6.69797 2.8999 11.9999C2.8999 17.3018 7.19797 21.5999 12.4999 21.5999ZM13.6999 8.3999C13.6999 7.73716 13.1626 7.1999 12.4999 7.1999C11.8372 7.1999 11.2999 7.73716 11.2999 8.3999V10.7999H8.8999C8.23716 10.7999 7.6999 11.3372 7.6999 11.9999C7.6999 12.6626 8.23716 13.1999 8.8999 13.1999H11.2999V15.5999C11.2999 16.2626 11.8372 16.7999 12.4999 16.7999C13.1626 16.7999 13.6999 16.2626 13.6999 15.5999V13.1999H16.0999C16.7626 13.1999 17.2999 12.6626 17.2999 11.9999C17.2999 11.3372 16.7626 10.7999 16.0999 10.7999H13.6999V8.3999Z" fill="url(#paint0_linear_20_3891)"/>
</g>
<defs>
<linearGradient id="paint0_linear_20_3891" x1="16.4483" y1="2.93961" x2="8.56545" y2="16.4505" gradientUnits="userSpaceOnUse">
<stop stop-color="#FBD04E"/>
<stop offset="0.56019" stop-color="#F56328"/>
<stop offset="1" stop-color="#A12D30"/>
</linearGradient>
</defs>
</svg>
