<svg width="24" height="24" viewBox="0 0 24 24" fill="none" xmlns="http://www.w3.org/2000/svg">
<g opacity="0.9">
<path d="M16.972 9.92344L19.5394 10.5225C19.864 10.6016 20.213 10.4897 20.4487 10.2597C20.5192 10.277 21.7946 8.02085 21.866 7.9345C22.1371 7.47787 21.9838 6.88943 21.5234 6.62018C21.0636 6.35285 20.4706 6.50341 20.1988 6.96004L19.8838 7.49044C16.3257 1.17236 6.70659 1.6036 3.72009 8.26572C3.21948 9.42428 4.93236 10.1967 5.48235 9.0576C7.74805 3.93443 15.1777 3.46413 18.0688 8.20823L17.4147 8.05569C16.1724 7.78683 15.7389 9.61455 16.972 9.92344ZM3.41207 13.8926L2.14045 16.0339C1.51596 17.1275 3.13702 18.0866 3.80762 17.0083L4.1226 16.478C5.71499 19.2418 8.67921 21 12.0032 21C15.5643 21 18.8154 18.9205 20.2864 15.7028C20.5068 15.2206 20.2914 14.6515 19.8046 14.4329C19.3174 14.2143 18.7446 14.4279 18.5241 14.9107C17.3662 17.4438 14.8066 19.081 12.0032 19.081C9.48204 19.081 7.22063 17.7992 5.93767 15.7603L6.59177 15.9127C7.83374 16.1828 8.26752 14.3532 7.03449 14.045L4.46704 13.4459C4.06381 13.3556 3.6225 13.5358 3.41207 13.8926Z" fill="#738290"/>
</g>
</svg>
