<svg width="24" height="24" viewBox="0 0 24 24" fill="none" xmlns="http://www.w3.org/2000/svg">
<rect width="24" height="24" fill="#F5F5F5"/>
<g clip-path="url(#clip0_23_8480)">
<rect width="1440" height="960" transform="translate(-124 -396)" fill="#F9FAFC"/>
<rect x="-24" y="-280" width="250" height="328" rx="15" fill="white"/>
<g style="mix-blend-mode:luminosity">
<path d="M4.75 7C4.33579 7 4 7.33579 4 7.75C4 8.16421 4.33579 8.5 4.75 8.5H8.75C9.1642 8.5 9.5 8.16421 9.5 7.75C9.5 7.33579 9.1642 7 8.75 7H4.75Z" fill="url(#paint0_linear_23_8480)"/>
<path fill-rule="evenodd" clip-rule="evenodd" d="M20.1884 8.00353C20.1262 7.99971 20.0584 7.99974 19.9881 7.99976L19.9706 7.99977H17.2149C14.9435 7.99977 13 9.73583 13 11.9998C13 14.2637 14.9435 15.9998 17.2149 15.9998H19.9706H19.9881C20.0584 15.9998 20.1262 15.9998 20.1884 15.996C21.111 15.9395 21.927 15.2384 21.9956 14.2592C22.0001 14.195 22 14.1258 22 14.0617V14.0442V9.95532V9.93791C22 9.87376 22.0001 9.80455 21.9956 9.74034C21.927 8.76115 21.111 8.0601 20.1884 8.00353ZM16.9706 13.0665C17.5554 13.0665 18.0294 12.5889 18.0294 11.9998C18.0294 11.4107 17.5554 10.9331 16.9706 10.9331C16.3858 10.9331 15.9118 11.4107 15.9118 11.9998C15.9118 12.5889 16.3858 13.0665 16.9706 13.0665Z" fill="url(#paint1_linear_23_8480)"/>
<path opacity="0.5" d="M20.1394 8.00152C20.1394 6.82091 20.0965 5.55447 19.3418 4.64658C19.2689 4.55894 19.1914 4.47384 19.1088 4.39124C18.3604 3.64288 17.4114 3.31076 16.239 3.15314C15.0998 2.99997 13.6442 2.99999 11.8064 3H9.6936C7.85583 2.99999 6.40019 2.99997 5.26098 3.15314C4.08856 3.31076 3.13961 3.64288 2.39124 4.39124C1.64288 5.13961 1.31076 6.08856 1.15314 7.26098C0.99997 8.40019 0.99999 9.85581 1 11.6936V11.8064C0.99999 13.6442 0.99997 15.0998 1.15314 16.239C1.31076 17.4114 1.64288 18.3604 2.39124 19.1088C3.13961 19.8571 4.08856 20.1892 5.26098 20.3469C6.40018 20.5 7.8558 20.5 9.6935 20.5H11.8064C13.6442 20.5 15.0998 20.5 16.239 20.3469C17.4114 20.1892 18.3604 19.8571 19.1088 19.1088C19.3133 18.9042 19.487 18.6844 19.6346 18.4486C20.0851 17.7291 20.1394 16.8473 20.1394 15.9985C20.0912 16 20.0404 16 19.9882 16H17.2149C14.9435 16 13 14.2639 13 12C13 9.73607 14.9435 8.00001 17.2149 8.00001H19.9881C20.0403 7.99999 20.0912 7.99997 20.1394 8.00152Z" fill="url(#paint2_linear_23_8480)"/>
</g>
</g>
<defs>
<linearGradient id="paint0_linear_23_8480" x1="7.88105" y1="7.04216" x2="7.66148" y2="8.42208" gradientUnits="userSpaceOnUse">
<stop stop-color="#FBD04E"/>
<stop offset="0.56019" stop-color="#F56328"/>
<stop offset="1" stop-color="#A12D30"/>
</linearGradient>
<linearGradient id="paint1_linear_23_8480" x1="19.3508" y1="8.22464" x2="16.2669" y2="14.1711" gradientUnits="userSpaceOnUse">
<stop stop-color="#FBD04E"/>
<stop offset="0.56019" stop-color="#F56328"/>
<stop offset="1" stop-color="#A12D30"/>
</linearGradient>
<linearGradient id="paint2_linear_23_8480" x1="14.5056" y1="3.49192" x2="7.65071" y2="16.3417" gradientUnits="userSpaceOnUse">
<stop stop-color="#FBD04E"/>
<stop offset="0.56019" stop-color="#F56328"/>
<stop offset="1" stop-color="#A12D30"/>
</linearGradient>
<clipPath id="clip0_23_8480">
<rect width="1440" height="960" fill="white" transform="translate(-124 -396)"/>
</clipPath>
</defs>
</svg>
