<svg width="24" height="24" viewBox="0 0 24 24" fill="none" xmlns="http://www.w3.org/2000/svg">
<g style="mix-blend-mode:luminosity">
<path opacity="0.4" d="M18.4698 16.8298L18.8598 19.9898C18.9598 20.8198 18.0698 21.3998 17.3598 20.9698L13.1698 18.4798C12.7098 18.4798 12.2599 18.4498 11.8199 18.3898C12.5599 17.5198 12.9998 16.4198 12.9998 15.2298C12.9998 12.3898 10.5398 10.0898 7.49985 10.0898C6.33985 10.0898 5.26985 10.4198 4.37985 10.9998C4.34985 10.7498 4.33984 10.4998 4.33984 10.2398C4.33984 5.68982 8.28985 1.99983 13.1698 1.99983C18.0498 1.99983 21.9998 5.68982 21.9998 10.2398C21.9998 12.9398 20.6098 15.3298 18.4698 16.8298Z" fill="url(#paint0_linear_47_7)"/>
<path d="M13 15.2298C13 16.4198 12.56 17.5198 11.82 18.3898C10.83 19.5898 9.26 20.3598 7.5 20.3598L4.89 21.9098C4.45 22.1798 3.89 21.8098 3.95 21.2998L4.2 19.3298C2.86 18.3998 2 16.9098 2 15.2298C2 13.4698 2.94 11.9198 4.38 10.9998C5.27 10.4198 6.34 10.0898 7.5 10.0898C10.54 10.0898 13 12.3898 13 15.2298Z" fill="url(#paint1_linear_47_7)"/>
</g>
<defs>
<linearGradient id="paint0_linear_47_7" x1="16.8015" y1="2.53717" x2="8.66121" y2="15.4269" gradientUnits="userSpaceOnUse">
<stop stop-color="#DDDDDD"/>
<stop offset="0.56019" stop-color="#919191"/>
<stop offset="1" stop-color="#535353"/>
</linearGradient>
<linearGradient id="paint1_linear_47_7" x1="9.7621" y1="10.4246" x2="4.6892" y2="18.4545" gradientUnits="userSpaceOnUse">
<stop stop-color="#C8C8C8"/>
<stop offset="0.56019" stop-color="#8E8E8E"/>
<stop offset="1" stop-color="#505050"/>
</linearGradient>
</defs>
</svg>
