<svg width="24" height="24" viewBox="0 0 24 24" fill="none" xmlns="http://www.w3.org/2000/svg">
<g style="mix-blend-mode:luminosity">
<path d="M14.785 18.6667C14.785 19.0203 14.4905 19.3594 13.9664 19.6095C13.4423 19.8595 12.7314 20 11.9902 20C11.2491 20 10.5382 19.8595 10.0141 19.6095C9.48995 19.3594 9.1955 19.0203 9.1955 18.6667" stroke="#4F4F4F" stroke-width="1.08314" stroke-linecap="round" stroke-linejoin="round"/>
<path d="M6.38416 16.5419C5.9567 16.4553 5.57877 16.2191 5.32492 15.8797C5.07108 15.5403 4.95979 15.1224 5.013 14.7086L5.88636 7.95033C6.10935 6.56089 6.85064 5.29498 7.97389 4.38551C9.09715 3.47604 10.5268 2.98419 11.9999 3.00039C13.473 2.98419 14.9026 3.47604 16.0258 4.38551C17.1491 5.29498 17.8904 6.56089 18.1134 7.95033L18.9868 14.7086C19.0403 15.1213 18.9302 15.5381 18.6781 15.8773C18.4261 16.2165 18.0502 16.4536 17.6243 16.5419C13.9279 17.3706 10.0805 17.3706 6.38416 16.5419Z" fill="url(#paint0_linear_45_5)"/>
</g>
<defs>
<linearGradient id="paint0_linear_45_5" x1="14.879" y1="3.39813" x2="9.031" y2="13.3058" gradientUnits="userSpaceOnUse">
<stop stop-color="#B7B7B7"/>
<stop offset="0.56019" stop-color="#6F6F6F"/>
<stop offset="1" stop-color="#4F4F4F"/>
</linearGradient>
</defs>
</svg>
