<svg width="24" height="24" viewBox="0 0 24 24" fill="none" xmlns="http://www.w3.org/2000/svg">
<g style="mix-blend-mode:luminosity">
<path opacity="0.4" d="M18.4698 16.8298L18.8598 19.9898C18.9598 20.8198 18.0698 21.3998 17.3598 20.9698L13.1698 18.4798C12.7098 18.4798 12.2599 18.4498 11.8199 18.3898C12.5599 17.5198 12.9998 16.4198 12.9998 15.2298C12.9998 12.3898 10.5398 10.0898 7.49988 10.0898C6.33988 10.0898 5.26988 10.4198 4.37988 10.9998C4.34988 10.7498 4.33987 10.4998 4.33987 10.2398C4.33987 5.68975 8.28988 1.99976 13.1698 1.99976C18.0498 1.99976 21.9998 5.68975 21.9998 10.2398C21.9998 12.9398 20.6098 15.3298 18.4698 16.8298Z" fill="url(#paint0_linear_22_1153)"/>
<path d="M13 15.2298C13 16.4198 12.56 17.5198 11.82 18.3898C10.83 19.5898 9.26001 20.3598 7.50001 20.3598L4.89001 21.9098C4.45001 22.1798 3.89001 21.8098 3.95001 21.2998L4.20001 19.3298C2.86001 18.3998 2.00001 16.9098 2.00001 15.2298C2.00001 13.4698 2.94001 11.9198 4.38001 10.9998C5.27001 10.4198 6.34001 10.0898 7.50001 10.0898C10.54 10.0898 13 12.3898 13 15.2298Z" fill="url(#paint1_linear_22_1153)"/>
</g>
<defs>
<linearGradient id="paint0_linear_22_1153" x1="16.8015" y1="2.5371" x2="8.66123" y2="15.4268" gradientUnits="userSpaceOnUse">
<stop stop-color="#FBD04E"/>
<stop offset="0.56019" stop-color="#F56328"/>
<stop offset="1" stop-color="#A12D30"/>
</linearGradient>
<linearGradient id="paint1_linear_22_1153" x1="9.76211" y1="10.4247" x2="4.68921" y2="18.4545" gradientUnits="userSpaceOnUse">
<stop stop-color="#FBD04E"/>
<stop offset="0.56019" stop-color="#F56328"/>
<stop offset="1" stop-color="#A12D30"/>
</linearGradient>
</defs>
</svg>
