<svg width="24" height="24" viewBox="0 0 24 24" fill="none" xmlns="http://www.w3.org/2000/svg">
<g style="mix-blend-mode:luminosity">
<mask id="mask0_43_22" style="mask-type:luminance" maskUnits="userSpaceOnUse" x="4" y="5" width="13" height="12">
<path d="M14.439 5.31525C12.4225 5.9611 11.0996 7.54878 10.4703 10.0783C9.52632 13.8725 8.35649 14.3563 4.54797 13.0068C5.91577 15.5332 8.68806 16.5461 10.4703 16.5461C12.2525 16.5461 16.8683 14.0648 16.3394 9.34812C15.8803 7.97439 15.2468 6.6301 14.439 5.31525Z" fill="#FFA0A0"/>
</mask>
<g mask="url(#mask0_43_22)">
<path d="M22.8 1.20019H1.20001V22.8002H22.8V1.20019Z" fill="url(#paint0_linear_43_22)"/>
</g>
<path d="M15.7612 14.4931L20.7391 19.4791C21.087 19.827 21.087 20.3911 20.7391 20.7391C20.3911 21.087 19.827 21.087 19.4791 20.7391L14.5023 15.7541C13.2947 16.6944 11.7764 17.2545 10.1273 17.2545C6.19098 17.2545 3 14.0635 3 10.1273C3 6.19098 6.19098 3 10.1273 3C14.0635 3 17.2545 6.19098 17.2545 10.1273C17.2545 11.7722 16.6973 13.287 15.7612 14.4931ZM10.1273 15.4727C13.0795 15.4727 15.4727 13.0795 15.4727 10.1273C15.4727 7.17505 13.0795 4.78181 10.1273 4.78181C7.17505 4.78181 4.78181 7.17505 4.78181 10.1273C4.78181 13.0795 7.17505 15.4727 10.1273 15.4727Z" fill="url(#paint1_linear_43_22)"/>
</g>
<defs>
<linearGradient id="paint0_linear_43_22" x1="16.4419" y1="1.80736" x2="7.57375" y2="17.0071" gradientUnits="userSpaceOnUse">
<stop stop-color="#B0B0B0"/>
<stop offset="0.56019" stop-color="#747474"/>
<stop offset="1" stop-color="#5B5B5B"/>
</linearGradient>
<linearGradient id="paint1_linear_43_22" x1="15.7016" y1="3.50598" x2="8.31145" y2="16.1725" gradientUnits="userSpaceOnUse">
<stop stop-color="#B0B0B0"/>
<stop offset="0.56019" stop-color="#747474"/>
<stop offset="1" stop-color="#5B5B5B"/>
</linearGradient>
</defs>
</svg>
