<svg width="18" height="18" viewBox="0 0 18 18" fill="none" xmlns="http://www.w3.org/2000/svg">
<g clip-path="url(#clip0_1477_9231)">
<path fill-rule="evenodd" clip-rule="evenodd" d="M9 2.0625C5.16852 2.0625 2.0625 5.16852 2.0625 9C2.0625 12.8315 5.16852 15.9375 9 15.9375C12.8315 15.9375 15.9375 12.8315 15.9375 9C15.9375 5.16852 12.8315 2.0625 9 2.0625ZM0.9375 9C0.9375 4.5472 4.5472 0.9375 9 0.9375C13.4528 0.9375 17.0625 4.5472 17.0625 9C17.0625 13.4528 13.4528 17.0625 9 17.0625C4.5472 17.0625 0.9375 13.4528 0.9375 9ZM6.29811 11.665C6.4831 11.4155 6.83539 11.3631 7.08496 11.5481C7.63121 11.953 8.29058 12.1875 9 12.1875C9.70942 12.1875 10.3688 11.953 10.915 11.5481C11.1646 11.3631 11.5169 11.4155 11.7019 11.665C11.8869 11.9146 11.8345 12.2669 11.585 12.4519C10.8557 12.9925 9.96373 13.3125 9 13.3125C8.03627 13.3125 7.14435 12.9925 6.41504 12.4519C6.16547 12.2669 6.11311 11.9146 6.29811 11.665Z" fill="#96A1AF"/>
<path d="M12 7.875C12 8.49632 11.6642 9 11.25 9C10.8358 9 10.5 8.49632 10.5 7.875C10.5 7.25368 10.8358 6.75 11.25 6.75C11.6642 6.75 12 7.25368 12 7.875Z" fill="#96A1AF"/>
<path d="M7.5 7.875C7.5 8.49632 7.16421 9 6.75 9C6.33579 9 6 8.49632 6 7.875C6 7.25368 6.33579 6.75 6.75 6.75C7.16421 6.75 7.5 7.25368 7.5 7.875Z" fill="#96A1AF"/>
</g>
<defs>
<clipPath id="clip0_1477_9231">
<rect width="18" height="18" fill="white"/>
</clipPath>
</defs>
</svg>
