<svg width="24" height="24" viewBox="0 0 24 24" fill="none" xmlns="http://www.w3.org/2000/svg">
<g opacity="0.9">
<path d="M10.772 3.27342C11.1585 2.10889 12.8415 2.10889 13.228 3.27342L14.6091 7.43422C14.7819 7.95502 15.2777 8.30762 15.8371 8.30762H20.3063C21.5571 8.30762 22.0772 9.87448 21.0653 10.5942L17.4496 13.1657C16.9971 13.4876 16.8077 14.0581 16.9805 14.5789L18.3616 18.7397C18.7481 19.9042 17.3866 20.8726 16.3746 20.1529L12.759 17.5814C12.3064 17.2595 11.6936 17.2595 11.241 17.5814L7.62538 20.1529C6.61343 20.8726 5.25186 19.9042 5.63839 18.7397L7.01945 14.5789C7.19231 14.0581 7.00294 13.4876 6.55038 13.1657L2.93473 10.5942C1.92278 9.87448 2.44285 8.30762 3.69369 8.30762H8.16288C8.72228 8.30762 9.21805 7.95502 9.39091 7.43422L10.772 3.27342Z" fill="url(#paint0_linear_23_6729)"/>
</g>
<defs>
<linearGradient id="paint0_linear_23_6729" x1="15.9484" y1="2.906" x2="8.80028" y2="15.9744" gradientUnits="userSpaceOnUse">
<stop stop-color="#FBD04E"/>
<stop offset="0.56019" stop-color="#F56328"/>
<stop offset="1" stop-color="#A12D30"/>
</linearGradient>
</defs>
</svg>
