<svg width="16" height="16" viewBox="0 0 16 16" fill="none" xmlns="http://www.w3.org/2000/svg">
<g opacity="0.9">
<path d="M10.7423 6.19394C11.1103 5.82594 11.4756 4.96727 9.94229 6.00994C8.50992 6.99573 7.06785 7.96733 5.61629 8.92461C5.39525 9.02456 5.15628 9.0788 4.91375 9.08407C4.67122 9.08934 4.43013 9.04553 4.20495 8.95527C3.28495 8.67927 2.21095 8.31127 2.21095 8.31127C2.21095 8.31127 1.47762 7.85061 2.73295 7.35994C2.73295 7.35994 8.04029 5.18194 9.88095 4.41461C10.5863 4.10794 12.979 3.12661 12.979 3.12661C12.979 3.12661 14.0836 2.69661 13.9916 3.73994C13.961 4.16927 13.7156 5.67327 13.4703 7.29861C13.1016 9.59927 12.703 12.1153 12.703 12.1153C12.703 12.1153 12.6416 12.8206 12.1203 12.9433C11.5622 12.9338 11.023 12.7397 10.587 12.3913C10.4643 12.2993 8.28629 10.9186 7.48829 10.2439C7.40711 10.189 7.34116 10.1143 7.29658 10.027C7.25199 9.93968 7.23022 9.8425 7.23328 9.7445C7.23634 9.6465 7.26413 9.55087 7.31408 9.46649C7.36403 9.38212 7.43451 9.31176 7.51895 9.26194C8.61345 8.26055 9.68811 7.23769 10.7423 6.19394Z" fill="white"/>
</g>
</svg>
