<svg width="16" height="16" viewBox="0 0 16 16" fill="none" xmlns="http://www.w3.org/2000/svg">
<g opacity="0.9">
<path d="M14.6673 3.86656C14.1662 4.08396 13.6363 4.22767 13.094 4.29323C13.6661 3.95144 14.0948 3.41375 14.3007 2.7799C13.763 3.09994 13.1745 3.32543 12.5607 3.44656C12.1503 3.00161 11.604 2.70543 11.0072 2.60446C10.4104 2.5035 9.79701 2.60347 9.26318 2.88869C8.72934 3.17391 8.30527 3.62825 8.05748 4.18045C7.80968 4.73266 7.75218 5.35149 7.89398 5.9399C6.80694 5.88491 5.74361 5.60186 4.77309 5.10914C3.80256 4.61641 2.94655 3.92502 2.26065 3.0799C2.02008 3.50001 1.89366 3.97578 1.89398 4.4599C1.89313 4.90948 2.00346 5.35231 2.21515 5.74894C2.42685 6.14557 2.73333 6.4837 3.10732 6.73323C2.67264 6.7214 2.24724 6.60476 1.86732 6.39323V6.42656C1.87058 7.05649 2.09131 7.66596 2.49219 8.15187C2.89307 8.63779 3.44949 8.97032 4.06732 9.09323C3.82949 9.16561 3.58257 9.20377 3.33398 9.20656C3.16191 9.20455 2.99027 9.18895 2.82065 9.1599C2.99659 9.70177 3.33707 10.1753 3.7947 10.5147C4.25234 10.854 4.80437 11.0423 5.37398 11.0532C4.41212 11.8101 3.22457 12.2231 2.00065 12.2266C1.77781 12.2273 1.55514 12.2139 1.33398 12.1866C2.5836 12.9934 4.03986 13.4217 5.52732 13.4199C6.55378 13.4306 7.57207 13.2366 8.52273 12.8493C9.47338 12.462 10.3373 11.8892 11.0641 11.1642C11.7909 10.4393 12.366 9.57682 12.7557 8.62717C13.1454 7.67751 13.342 6.65971 13.334 5.63323C13.334 5.5199 13.334 5.3999 13.334 5.2799C13.8571 4.88977 14.3083 4.41151 14.6673 3.86656Z" fill="#676A71"/>
</g>
</svg>
