<svg width="24" height="25" viewBox="0 0 24 25" fill="none" xmlns="http://www.w3.org/2000/svg">
<g opacity="0.9">
<path d="M9.60039 11.3001C11.5886 11.3001 13.2004 9.68832 13.2004 7.7001C13.2004 5.71187 11.5886 4.1001 9.60039 4.1001C7.61217 4.1001 6.00039 5.71187 6.00039 7.7001C6.00039 9.68832 7.61217 11.3001 9.60039 11.3001Z" fill="#38252B"/>
<path d="M9.60039 13.7001C13.5768 13.7001 16.8004 16.9236 16.8004 20.9001H2.40039C2.40039 16.9236 5.62394 13.7001 9.60039 13.7001Z" fill="#38252B"/>
<path d="M19.2004 8.9001C19.2004 8.23736 18.6631 7.7001 18.0004 7.7001C17.3377 7.7001 16.8004 8.23736 16.8004 8.9001V10.1001H15.6004C14.9376 10.1001 14.4004 10.6374 14.4004 11.3001C14.4004 11.9628 14.9376 12.5001 15.6004 12.5001H16.8004V13.7001C16.8004 14.3628 17.3377 14.9001 18.0004 14.9001C18.6631 14.9001 19.2004 14.3628 19.2004 13.7001V12.5001H20.4004C21.0631 12.5001 21.6004 11.9628 21.6004 11.3001C21.6004 10.6374 21.0631 10.1001 20.4004 10.1001H19.2004V8.9001Z" fill="#38252B"/>
</g>
</svg>
