<svg width="24" height="24" viewBox="0 0 24 24" fill="none" xmlns="http://www.w3.org/2000/svg">
<path d="M9.60039 10.8001C11.5886 10.8001 13.2004 9.18832 13.2004 7.2001C13.2004 5.21187 11.5886 3.6001 9.60039 3.6001C7.61217 3.6001 6.00039 5.21187 6.00039 7.2001C6.00039 9.18832 7.61217 10.8001 9.60039 10.8001Z" fill="white"/>
<path d="M9.60039 13.2001C13.5768 13.2001 16.8004 16.4236 16.8004 20.4001H2.40039C2.40039 16.4236 5.62394 13.2001 9.60039 13.2001Z" fill="white"/>
<path d="M19.2004 8.4001C19.2004 7.73736 18.6631 7.2001 18.0004 7.2001C17.3377 7.2001 16.8004 7.73736 16.8004 8.4001V9.6001H15.6004C14.9376 9.6001 14.4004 10.1374 14.4004 10.8001C14.4004 11.4628 14.9376 12.0001 15.6004 12.0001H16.8004V13.2001C16.8004 13.8628 17.3377 14.4001 18.0004 14.4001C18.6631 14.4001 19.2004 13.8628 19.2004 13.2001V12.0001H20.4004C21.0631 12.0001 21.6004 11.4628 21.6004 10.8001C21.6004 10.1374 21.0631 9.6001 20.4004 9.6001H19.2004V8.4001Z" fill="white"/>
</svg>
